<?plantuml 1.2026.2?><svg xmlns="http://www.w3.org/2000/svg" xmlns:xlink="http://www.w3.org/1999/xlink" contentStyleType="text/css" data-diagram-type="SEQUENCE" height="1162px" preserveAspectRatio="none" style="width:848px;height:1162px;background:#FFFFFF;" version="1.1" viewBox="0 0 848 1162" width="848px" zoomAndPan="magnify"><title>Stage 7: Manual Moderation Workflow (Optimized)</title><defs/><g><text fill="#000000" font-family="sans-serif" font-size="14" font-weight="bold" lengthAdjust="spacing" textLength="401.4814" x="219.6689" y="27.9951">Stage 7: Manual Moderation Workflow (Optimized)</text><g><title>Moderator UI</title><rect fill="#FFFFFF" height="438.3906" style="stroke:#181818;stroke-width:1;" width="10" x="201.2051" y="232.125"/></g><g><title>Video Svc</title><rect fill="#FFFFFF" height="79.3984" style="stroke:#181818;stroke-width:1;" width="10" x="414.3188" y="291.5234"/></g><g><title>Video Svc</title><rect fill="#FFFFFF" height="123.6641" style="stroke:#181818;stroke-width:1;" width="10" x="414.3188" y="502.5859"/></g><g><title>Orchestrator</title><rect fill="#FFFFFF" height="306.6641" style="stroke:#181818;stroke-width:1;" width="10" x="755.3755" y="757.9141"/></g><rect fill="none" height="928.9844" style="stroke:#000000;stroke-width:1.5;" width="821.8193" x="10" y="135.5938"/><rect fill="none" height="284.6641" style="stroke:#000000;stroke-width:1.5;" width="453.9263" x="367.8931" y="772.9141"/><g class="participant-lifeline" data-entity-uid="part1" data-qualified-name="Mod" id="part1-lifeline"><g><title>Moderator</title><rect fill="#000000" fill-opacity="0.00000" height="962.9844" width="8" x="55.145" y="118.5938"/><line style="stroke:#181818;stroke-width:0.5;stroke-dasharray:5,5;" x1="59" x2="59" y1="118.5938" y2="1081.5781"/></g></g><g class="participant-lifeline" data-entity-uid="part2" data-qualified-name="ModUI" id="part2-lifeline"><g><title>Moderator UI</title><rect fill="#000000" fill-opacity="0.00000" height="962.9844" width="8" x="202.2051" y="118.5938"/><line style="stroke:#181818;stroke-width:0.5;stroke-dasharray:5,5;" x1="205.647" x2="205.647" y1="118.5938" y2="1081.5781"/></g></g><g class="participant-lifeline" data-entity-uid="part3" data-qualified-name="VideoSvc" id="part3-lifeline"><g><title>Video Svc</title><rect fill="#000000" fill-opacity="0.00000" height="962.9844" width="8" x="415.3188" y="118.5938"/><line style="stroke:#181818;stroke-width:0.5;stroke-dasharray:5,5;" x1="418.8931" x2="418.8931" y1="118.5938" y2="1081.5781"/></g></g><g class="participant-lifeline" data-entity-uid="part4" data-qualified-name="Kafka" id="part4-lifeline"><g><title>Kafka</title><rect fill="#000000" fill-opacity="0.00000" height="962.9844" width="8" x="588.3472" y="118.5938"/><line style="stroke:#181818;stroke-width:0.5;stroke-dasharray:5,5;" x1="591.6597" x2="591.6597" y1="118.5938" y2="1081.5781"/></g></g><g class="participant-lifeline" data-entity-uid="part5" data-qualified-name="Orch" id="part5-lifeline"><g><title>Orchestrator</title><rect fill="#000000" fill-opacity="0.00000" height="962.9844" width="8" x="756.3755" y="118.5938"/><line style="stroke:#181818;stroke-width:0.5;stroke-dasharray:5,5;" x1="759.9316" x2="759.9316" y1="118.5938" y2="1081.5781"/></g></g><g class="participant participant-head" data-entity-uid="part1" data-qualified-name="Mod" id="part1-head"><text fill="#000000" font-family="sans-serif" font-size="14" lengthAdjust="spacing" textLength="72.29" x="20" y="115.292">Moderator</text><ellipse cx="59.145" cy="50.7969" fill="#E2E2F0" rx="8" ry="8" style="stroke:#181818;stroke-width:0.5;"/><path d="M59.145,58.7969 L59.145,85.7969 M46.145,66.7969 L72.145,66.7969 M59.145,85.7969 L46.145,100.7969 M59.145,85.7969 L72.145,100.7969" fill="none" style="stroke:#181818;stroke-width:0.5;"/></g><g class="participant participant-tail" data-entity-uid="part1" data-qualified-name="Mod" id="part1-tail"><text fill="#000000" font-family="sans-serif" font-size="14" lengthAdjust="spacing" textLength="72.29" x="20" y="1093.5732">Moderator</text><ellipse cx="59.145" cy="1105.375" fill="#E2E2F0" rx="8" ry="8" style="stroke:#181818;stroke-width:0.5;"/><path d="M59.145,1113.375 L59.145,1140.375 M46.145,1121.375 L72.145,1121.375 M59.145,1140.375 L46.145,1155.375 M59.145,1140.375 L72.145,1155.375" fill="none" style="stroke:#181818;stroke-width:0.5;"/></g><g class="participant participant-head" data-entity-uid="part2" data-qualified-name="ModUI" id="part2-head"><rect fill="#E2E2F0" height="30.2969" rx="2.5" ry="2.5" style="stroke:#181818;stroke-width:0.5;" width="105.1162" x="153.647" y="87.2969"/><text fill="#000000" font-family="sans-serif" font-size="14" lengthAdjust="spacing" textLength="91.1162" x="160.647" y="107.292">Moderator UI</text></g><g class="participant participant-tail" data-entity-uid="part2" data-qualified-name="ModUI" id="part2-tail"><rect fill="#E2E2F0" height="30.2969" rx="2.5" ry="2.5" style="stroke:#181818;stroke-width:0.5;" width="105.1162" x="153.647" y="1080.5781"/><text fill="#000000" font-family="sans-serif" font-size="14" lengthAdjust="spacing" textLength="91.1162" x="160.647" y="1100.5732">Moderator UI</text></g><g class="participant participant-head" data-entity-uid="part3" data-qualified-name="VideoSvc" id="part3-head"><rect fill="#E2E2F0" height="30.2969" rx="2.5" ry="2.5" style="stroke:#181818;stroke-width:0.5;" width="82.8516" x="377.8931" y="87.2969"/><text fill="#000000" font-family="sans-serif" font-size="14" lengthAdjust="spacing" textLength="68.8516" x="384.8931" y="107.292">Video Svc</text></g><g class="participant participant-tail" data-entity-uid="part3" data-qualified-name="VideoSvc" id="part3-tail"><rect fill="#E2E2F0" height="30.2969" rx="2.5" ry="2.5" style="stroke:#181818;stroke-width:0.5;" width="82.8516" x="377.8931" y="1080.5781"/><text fill="#000000" font-family="sans-serif" font-size="14" lengthAdjust="spacing" textLength="68.8516" x="384.8931" y="1100.5732">Video Svc</text></g><g class="participant participant-head" data-entity-uid="part4" data-qualified-name="Kafka" id="part4-head"><path d="M567.6597,92.2969 L617.0347,92.2969 C622.0347,92.2969 622.0347,105.4453 622.0347,105.4453 C622.0347,105.4453 622.0347,118.5938 617.0347,118.5938 L567.6597,118.5938 C562.6597,118.5938 562.6597,105.4453 562.6597,105.4453 C562.6597,105.4453 562.6597,92.2969 567.6597,92.2969" fill="#E2E2F0" style="stroke:#181818;stroke-width:0.5;"/><path d="M617.0347,92.2969 C612.0347,92.2969 612.0347,105.4453 612.0347,105.4453 C612.0347,118.5938 617.0347,118.5938 617.0347,118.5938" fill="none" style="stroke:#181818;stroke-width:0.5;"/><text fill="#000000" font-family="sans-serif" font-size="14" lengthAdjust="spacing" textLength="39.375" x="567.6597" y="110.292">Kafka</text></g><g class="participant participant-tail" data-entity-uid="part4" data-qualified-name="Kafka" id="part4-tail"><path d="M567.6597,1080.5781 L617.0347,1080.5781 C622.0347,1080.5781 622.0347,1093.7266 622.0347,1093.7266 C622.0347,1093.7266 622.0347,1106.875 617.0347,1106.875 L567.6597,1106.875 C562.6597,1106.875 562.6597,1093.7266 562.6597,1093.7266 C562.6597,1093.7266 562.6597,1080.5781 567.6597,1080.5781" fill="#E2E2F0" style="stroke:#181818;stroke-width:0.5;"/><path d="M617.0347,1080.5781 C612.0347,1080.5781 612.0347,1093.7266 612.0347,1093.7266 C612.0347,1106.875 617.0347,1106.875 617.0347,1106.875" fill="none" style="stroke:#181818;stroke-width:0.5;"/><text fill="#000000" font-family="sans-serif" font-size="14" lengthAdjust="spacing" textLength="39.375" x="567.6597" y="1098.5732">Kafka</text></g><g class="participant participant-head" data-entity-uid="part5" data-qualified-name="Orch" id="part5-head"><rect fill="#E2E2F0" height="30.2969" rx="2.5" ry="2.5" style="stroke:#181818;stroke-width:0.5;" width="102.8877" x="708.9316" y="87.2969"/><text fill="#000000" font-family="sans-serif" font-size="14" lengthAdjust="spacing" textLength="88.8877" x="715.9316" y="107.292">Orchestrator</text></g><g class="participant participant-tail" data-entity-uid="part5" data-qualified-name="Orch" id="part5-tail"><rect fill="#E2E2F0" height="30.2969" rx="2.5" ry="2.5" style="stroke:#181818;stroke-width:0.5;" width="102.8877" x="708.9316" y="1080.5781"/><text fill="#000000" font-family="sans-serif" font-size="14" lengthAdjust="spacing" textLength="88.8877" x="715.9316" y="1100.5732">Orchestrator</text></g><g><title>Moderator UI</title><rect fill="#FFFFFF" height="438.3906" style="stroke:#181818;stroke-width:1;" width="10" x="201.2051" y="232.125"/></g><g><title>Video Svc</title><rect fill="#FFFFFF" height="79.3984" style="stroke:#181818;stroke-width:1;" width="10" x="414.3188" y="291.5234"/></g><g><title>Video Svc</title><rect fill="#FFFFFF" height="123.6641" style="stroke:#181818;stroke-width:1;" width="10" x="414.3188" y="502.5859"/></g><g><title>Orchestrator</title><rect fill="#FFFFFF" height="306.6641" style="stroke:#181818;stroke-width:1;" width="10" x="755.3755" y="757.9141"/></g><path d="M10,135.5938 L79.4512,135.5938 L79.4512,142.7266 L69.4512,152.7266 L10,152.7266 L10,135.5938" fill="#EEEEEE" style="stroke:#000000;stroke-width:1.5;"/><rect fill="none" height="928.9844" style="stroke:#000000;stroke-width:1.5;" width="821.8193" x="10" y="135.5938"/><text fill="#000000" font-family="sans-serif" font-size="13" font-weight="bold" lengthAdjust="spacing" textLength="24.4512" x="25" y="148.6606">opt</text><text fill="#000000" font-family="sans-serif" font-size="11" font-weight="bold" lengthAdjust="spacing" textLength="281.354" x="94.4512" y="147.8042">[Status == AWAITING_HUMAN_MODERATION]</text><rect fill="#EEEEEE" height="3" style="stroke:#EEEEEE;stroke-width:1;" width="841.8193" x="0" y="173.293"/><line style="stroke:#000000;stroke-width:1;" x1="0" x2="841.8193" y1="173.293" y2="173.293"/><line style="stroke:#000000;stroke-width:1;" x1="0" x2="841.8193" y1="176.293" y2="176.293"/><rect fill="#EEEEEE" height="23.1328" style="stroke:#000000;stroke-width:2;" width="218.1851" x="311.8171" y="162.7266"/><text fill="#000000" font-family="sans-serif" font-size="13" font-weight="bold" lengthAdjust="spacing" textLength="199.6592" x="317.8171" y="178.7935">1. Fetch Moderation Queue</text><g class="message" data-entity-1="part1" data-entity-2="part2" id="msg1"><line style="stroke:#181818;stroke-width:1;" x1="199.2051" x2="189.2051" y1="232.125" y2="228.125"/><line style="stroke:#181818;stroke-width:1;" x1="199.2051" x2="189.2051" y1="232.125" y2="236.125"/><line style="stroke:#181818;stroke-width:1;" x1="59.145" x2="200.2051" y1="232.125" y2="232.125"/><text fill="#000000" font-family="sans-serif" font-size="13" lengthAdjust="spacing" textLength="34.7217" x="66.145" y="211.9263">Open</text><text fill="#000000" font-family="sans-serif" font-size="13" lengthAdjust="spacing" textLength="4.1323" x="100.8667" y="211.9263">&#160;</text><text fill="#000000" font-family="sans-serif" font-size="13" lengthAdjust="spacing" textLength="43.2783" x="104.999" y="211.9263">review</text><text fill="#000000" font-family="sans-serif" font-size="13" lengthAdjust="spacing" textLength="68.999" x="66.145" y="227.0591">dashboard</text></g><g class="message" data-entity-1="part2" data-entity-2="part3" id="msg2"><polygon fill="#181818" points="402.3188,287.5234,412.3188,291.5234,402.3188,295.5234,406.3188,291.5234" style="stroke:#181818;stroke-width:1;"/><line style="stroke:#181818;stroke-width:1;" x1="211.2051" x2="408.3188" y1="291.5234" y2="291.5234"/><text fill="#000000" font-family="sans-serif" font-size="13" lengthAdjust="spacing" textLength="26.2285" x="218.2051" y="256.1919">GET</text><text fill="#000000" font-family="sans-serif" font-size="13" lengthAdjust="spacing" textLength="148.7764" x="218.2051" y="271.3247">/api/moderation/queue</text><text fill="#000000" font-family="sans-serif" font-size="13" lengthAdjust="spacing" textLength="32.6523" x="218.2051" y="286.4575">(with</text><text fill="#000000" font-family="sans-serif" font-size="13" lengthAdjust="spacing" textLength="4.1323" x="250.8574" y="286.4575">&#160;</text><text fill="#000000" font-family="sans-serif" font-size="13" lengthAdjust="spacing" textLength="29.7007" x="254.9897" y="286.4575">JWT)</text></g><path d="M288,304.5234 L288,329.5234 L549,329.5234 L549,314.5234 L539,304.5234 L288,304.5234" fill="#FEFFDD" style="stroke:#181818;stroke-width:0.5;"/><path d="M539,304.5234 L539,314.5234 L549,314.5234 L539,304.5234" fill="#FEFFDD" style="stroke:#181818;stroke-width:0.5;"/><text fill="#000000" font-family="sans-serif" font-size="13" lengthAdjust="spacing" textLength="240.5254" x="294" y="321.5903">Validates RBAC (ROLE_MODERATOR)</text><g class="message" data-entity-1="part3" data-entity-2="part2" id="msg3"><polygon fill="#181818" points="222.2051,366.9219,212.2051,370.9219,222.2051,374.9219,218.2051,370.9219" style="stroke:#181818;stroke-width:1;"/><line style="stroke:#181818;stroke-width:1;stroke-dasharray:2,2;" x1="216.2051" x2="418.3188" y1="370.9219" y2="370.9219"/><text fill="#000000" font-family="sans-serif" font-size="13" lengthAdjust="spacing" textLength="24.813" x="228.2051" y="350.7231">200</text><text fill="#000000" font-family="sans-serif" font-size="13" lengthAdjust="spacing" textLength="4.1323" x="253.0181" y="350.7231">&#160;</text><text fill="#000000" font-family="sans-serif" font-size="13" lengthAdjust="spacing" textLength="18.7573" x="257.1504" y="350.7231">OK</text><text fill="#000000" font-family="sans-serif" font-size="13" lengthAdjust="spacing" textLength="4.1323" x="275.9077" y="350.7231">&#160;</text><text fill="#000000" font-family="sans-serif" font-size="13" lengthAdjust="spacing" textLength="47.7788" x="280.04" y="350.7231">(Queue</text><text fill="#000000" font-family="sans-serif" font-size="13" lengthAdjust="spacing" textLength="22.7246" x="228.2051" y="365.856">List</text><text fill="#000000" font-family="sans-serif" font-size="13" lengthAdjust="spacing" textLength="4.1323" x="250.9297" y="365.856">&#160;</text><text fill="#000000" font-family="sans-serif" font-size="13" lengthAdjust="spacing" textLength="37.1147" x="255.062" y="365.856">JSON)</text></g><rect fill="#EEEEEE" height="3" style="stroke:#EEEEEE;stroke-width:1;" width="841.8193" x="0" y="399.4883"/><line style="stroke:#000000;stroke-width:1;" x1="0" x2="841.8193" y1="399.4883" y2="399.4883"/><line style="stroke:#000000;stroke-width:1;" x1="0" x2="841.8193" y1="402.4883" y2="402.4883"/><rect fill="#EEEEEE" height="23.1328" style="stroke:#000000;stroke-width:2;" width="155.8511" x="342.9841" y="388.9219"/><text fill="#000000" font-family="sans-serif" font-size="13" font-weight="bold" lengthAdjust="spacing" textLength="137.3252" x="348.9841" y="404.9888">2. Submit Decision</text><g class="message" data-entity-1="part1" data-entity-2="part2" id="msg4"><line style="stroke:#181818;stroke-width:1;" x1="199.2051" x2="189.2051" y1="458.3203" y2="454.3203"/><line style="stroke:#181818;stroke-width:1;" x1="199.2051" x2="189.2051" y1="458.3203" y2="462.3203"/><line style="stroke:#181818;stroke-width:1;" x1="59.145" x2="200.2051" y1="458.3203" y2="458.3203"/><text fill="#000000" font-family="sans-serif" font-size="13" lengthAdjust="spacing" textLength="46.1157" x="66.145" y="438.1216">Submit</text><text fill="#000000" font-family="sans-serif" font-size="13" lengthAdjust="spacing" textLength="4.1323" x="112.2607" y="438.1216">&#160;</text><text fill="#000000" font-family="sans-serif" font-size="13" lengthAdjust="spacing" textLength="53.5869" x="116.3931" y="438.1216">decision</text><text fill="#000000" font-family="sans-serif" font-size="13" lengthAdjust="spacing" textLength="59.4585" x="66.145" y="453.2544">(Approve</text><text fill="#000000" font-family="sans-serif" font-size="13" lengthAdjust="spacing" textLength="4.1323" x="125.6035" y="453.2544">&#160;</text><text fill="#000000" font-family="sans-serif" font-size="13" lengthAdjust="spacing" textLength="4.3799" x="129.7358" y="453.2544">/</text><text fill="#000000" font-family="sans-serif" font-size="13" lengthAdjust="spacing" textLength="4.1323" x="134.1157" y="453.2544">&#160;</text><text fill="#000000" font-family="sans-serif" font-size="13" lengthAdjust="spacing" textLength="45.957" x="138.248" y="453.2544">Reject)</text></g><g class="message" data-entity-1="part2" data-entity-2="part3" id="msg5"><polygon fill="#181818" points="402.3188,498.5859,412.3188,502.5859,402.3188,506.5859,406.3188,502.5859" style="stroke:#181818;stroke-width:1;"/><line style="stroke:#181818;stroke-width:1;" x1="211.2051" x2="408.3188" y1="502.5859" y2="502.5859"/><text fill="#000000" font-family="sans-serif" font-size="13" lengthAdjust="spacing" textLength="34.2646" x="218.2051" y="482.3872">POST</text><text fill="#000000" font-family="sans-serif" font-size="13" lengthAdjust="spacing" textLength="184.1138" x="218.2051" y="497.52">/api/moderation/{id}/review</text></g><path d="M267,515.5859 L267,540.5859 L571,540.5859 L571,525.5859 L561,515.5859 L267,515.5859" fill="#FEFFDD" style="stroke:#181818;stroke-width:0.5;"/><path d="M561,515.5859 L561,525.5859 L571,525.5859 L561,515.5859" fill="#FEFFDD" style="stroke:#181818;stroke-width:0.5;"/><text fill="#000000" font-family="sans-serif" font-size="13" lengthAdjust="spacing" textLength="283.2007" x="273" y="532.6528">Optimistically locks status to 'PROCESSING'</text><g class="message" data-entity-1="part3" data-entity-2="part4" id="msg6"><polygon fill="#181818" points="580.3472,593.1172,590.3472,597.1172,580.3472,601.1172,584.3472,597.1172" style="stroke:#181818;stroke-width:1;"/><line style="stroke:#181818;stroke-width:1;" x1="424.3188" x2="586.3472" y1="597.1172" y2="597.1172"/><text fill="#000000" font-family="sans-serif" font-size="13" lengthAdjust="spacing" textLength="50.9463" x="431.3188" y="561.7856">Publish:</text><text fill="#000000" font-family="sans-serif" font-size="13" lengthAdjust="spacing" textLength="144.0283" x="431.3188" y="576.9185">VideoModeratedEvent</text><text fill="#000000" font-family="sans-serif" font-size="13" lengthAdjust="spacing" textLength="49.2197" x="431.3188" y="592.0513">(action,</text><text fill="#000000" font-family="sans-serif" font-size="13" lengthAdjust="spacing" textLength="4.1323" x="480.5386" y="592.0513">&#160;</text><text fill="#000000" font-family="sans-serif" font-size="13" lengthAdjust="spacing" textLength="49.3467" x="484.6709" y="592.0513">reason)</text></g><g class="message" data-entity-1="part3" data-entity-2="part2" id="msg7"><polygon fill="#181818" points="222.2051,622.25,212.2051,626.25,222.2051,630.25,218.2051,626.25" style="stroke:#181818;stroke-width:1;"/><line style="stroke:#181818;stroke-width:1;stroke-dasharray:2,2;" x1="216.2051" x2="418.3188" y1="626.25" y2="626.25"/><text fill="#000000" font-family="sans-serif" font-size="13" lengthAdjust="spacing" textLength="24.813" x="228.2051" y="621.1841">202</text><text fill="#000000" font-family="sans-serif" font-size="13" lengthAdjust="spacing" textLength="4.1323" x="253.0181" y="621.1841">&#160;</text><text fill="#000000" font-family="sans-serif" font-size="13" lengthAdjust="spacing" textLength="60.7852" x="257.1504" y="621.1841">Accepted</text></g><g class="message" data-entity-1="part2" data-entity-2="part1" id="msg8"><line style="stroke:#181818;stroke-width:1;" x1="60.145" x2="70.145" y1="670.5156" y2="666.5156"/><line style="stroke:#181818;stroke-width:1;" x1="60.145" x2="70.145" y1="670.5156" y2="674.5156"/><line style="stroke:#181818;stroke-width:1;" x1="59.145" x2="205.2051" y1="670.5156" y2="670.5156"/><text fill="#000000" font-family="sans-serif" font-size="13" lengthAdjust="spacing" textLength="17.729" x="76.145" y="650.3169">UI:</text><text fill="#000000" font-family="sans-serif" font-size="13" lengthAdjust="spacing" textLength="4.1323" x="93.874" y="650.3169">&#160;</text><text fill="#000000" font-family="sans-serif" font-size="13" lengthAdjust="spacing" textLength="52.9458" x="98.0063" y="650.3169">"Review</text><text fill="#000000" font-family="sans-serif" font-size="13" lengthAdjust="spacing" textLength="71.9634" x="76.145" y="665.4497">submitted"</text></g><rect fill="#EEEEEE" height="3" style="stroke:#EEEEEE;stroke-width:1;" width="841.8193" x="0" y="699.082"/><line style="stroke:#000000;stroke-width:1;" x1="0" x2="841.8193" y1="699.082" y2="699.082"/><line style="stroke:#000000;stroke-width:1;" x1="0" x2="841.8193" y1="702.082" y2="702.082"/><rect fill="#EEEEEE" height="23.1328" style="stroke:#000000;stroke-width:2;" width="199.7451" x="321.0371" y="688.5156"/><text fill="#000000" font-family="sans-serif" font-size="13" font-weight="bold" lengthAdjust="spacing" textLength="181.2192" x="327.0371" y="704.5825">3. Saga State Resolution</text><g class="message" data-entity-1="part4" data-entity-2="part5" id="msg9"><polygon fill="#181818" points="743.3755,753.9141,753.3755,757.9141,743.3755,761.9141,747.3755,757.9141" style="stroke:#181818;stroke-width:1;"/><line style="stroke:#181818;stroke-width:1;" x1="592.3472" x2="749.3755" y1="757.9141" y2="757.9141"/><text fill="#000000" font-family="sans-serif" font-size="13" lengthAdjust="spacing" textLength="65.3237" x="599.3472" y="737.7153">Consume:</text><text fill="#000000" font-family="sans-serif" font-size="13" lengthAdjust="spacing" textLength="144.0283" x="599.3472" y="752.8481">VideoModeratedEvent</text></g><path d="M367.8931,772.9141 L432.3359,772.9141 L432.3359,780.0469 L422.3359,790.0469 L367.8931,790.0469 L367.8931,772.9141" fill="#EEEEEE" style="stroke:#000000;stroke-width:1.5;"/><rect fill="none" height="284.6641" style="stroke:#000000;stroke-width:1.5;" width="453.9263" x="367.8931" y="772.9141"/><text fill="#000000" font-family="sans-serif" font-size="13" font-weight="bold" lengthAdjust="spacing" textLength="19.4429" x="382.8931" y="785.981">alt</text><text fill="#000000" font-family="sans-serif" font-size="11" font-weight="bold" lengthAdjust="spacing" textLength="145.5459" x="447.3359" y="785.1245">[Action == "APPROVE"]</text><g class="message" data-entity-1="part5" data-entity-2="part3" id="msg10"><polygon fill="#181818" points="430.3188,837.4453,420.3188,841.4453,430.3188,845.4453,426.3188,841.4453" style="stroke:#181818;stroke-width:1;"/><line style="stroke:#181818;stroke-width:1;" x1="424.3188" x2="754.3755" y1="841.4453" y2="841.4453"/><text fill="#000000" font-family="sans-serif" font-size="13" lengthAdjust="spacing" textLength="100.312" x="436.3188" y="806.1138">approveVideo()</text><text fill="#000000" font-family="sans-serif" font-size="13" lengthAdjust="spacing" textLength="50.8765" x="436.3188" y="821.2466">[Status:</text><text fill="#000000" font-family="sans-serif" font-size="13" lengthAdjust="spacing" textLength="76.0259" x="436.3188" y="836.3794">APPROVED]</text></g><g class="message" data-entity-1="part5" data-entity-2="part4" id="msg11"><polygon fill="#181818" points="603.3472,896.8438,593.3472,900.8438,603.3472,904.8438,599.3472,900.8438" style="stroke:#181818;stroke-width:1;"/><line style="stroke:#181818;stroke-width:1;" x1="597.3472" x2="754.3755" y1="900.8438" y2="900.8438"/><text fill="#000000" font-family="sans-serif" font-size="13" lengthAdjust="spacing" textLength="50.9463" x="609.3472" y="865.5122">Publish:</text><text fill="#000000" font-family="sans-serif" font-size="13" lengthAdjust="spacing" textLength="136.5889" x="609.3472" y="880.645">VideoApprovedEvent</text><text fill="#000000" font-family="sans-serif" font-size="13" lengthAdjust="spacing" textLength="138.1187" x="609.3472" y="895.7778">(localization_options)</text></g><line style="stroke:#000000;stroke-width:1;stroke-dasharray:2,2;" x1="367.8931" x2="821.8193" y1="909.8438" y2="909.8438"/><text fill="#000000" font-family="sans-serif" font-size="11" font-weight="bold" lengthAdjust="spacing" textLength="130.2275" x="372.8931" y="920.0542">[Action == "REJECT"]</text><g class="message" data-entity-1="part5" data-entity-2="part3" id="msg12"><polygon fill="#181818" points="430.3188,971.0469,420.3188,975.0469,430.3188,979.0469,426.3188,975.0469" style="stroke:#181818;stroke-width:1;"/><line style="stroke:#181818;stroke-width:1;" x1="424.3188" x2="754.3755" y1="975.0469" y2="975.0469"/><text fill="#000000" font-family="sans-serif" font-size="13" lengthAdjust="spacing" textLength="81.3452" x="436.3188" y="939.7153">blockVideo()</text><text fill="#000000" font-family="sans-serif" font-size="13" lengthAdjust="spacing" textLength="50.8765" x="436.3188" y="954.8481">[Status:</text><text fill="#000000" font-family="sans-serif" font-size="13" lengthAdjust="spacing" textLength="4.1323" x="487.1953" y="954.8481">&#160;</text><text fill="#000000" font-family="sans-serif" font-size="13" lengthAdjust="spacing" textLength="62.2197" x="491.3276" y="954.8481">BLOCKED</text><text fill="#000000" font-family="sans-serif" font-size="13" lengthAdjust="spacing" textLength="10.8926" x="436.3188" y="969.981">+</text><text fill="#000000" font-family="sans-serif" font-size="13" lengthAdjust="spacing" textLength="4.1323" x="447.2114" y="969.981">&#160;</text><text fill="#000000" font-family="sans-serif" font-size="13" lengthAdjust="spacing" textLength="49.3467" x="451.3438" y="969.981">reason]</text></g><g class="message" data-entity-1="part5" data-entity-2="part4" id="msg13"><polygon fill="#181818" points="603.3472,1045.5781,593.3472,1049.5781,603.3472,1053.5781,599.3472,1049.5781" style="stroke:#181818;stroke-width:1;"/><line style="stroke:#181818;stroke-width:1;" x1="597.3472" x2="754.3755" y1="1049.5781" y2="1049.5781"/><text fill="#000000" font-family="sans-serif" font-size="13" lengthAdjust="spacing" textLength="50.9463" x="609.3472" y="999.1138">Publish:</text><text fill="#000000" font-family="sans-serif" font-size="13" lengthAdjust="spacing" textLength="125.3599" x="609.3472" y="1014.2466">VideoBlockedEvent</text><text fill="#000000" font-family="sans-serif" font-size="13" lengthAdjust="spacing" textLength="55.7451" x="609.3472" y="1029.3794">(triggers</text><text fill="#000000" font-family="sans-serif" font-size="13" lengthAdjust="spacing" textLength="78.1777" x="609.3472" y="1044.5122">notification)</text></g><?plantuml-src bLFHJjim57tFLrprXLGRb7KFao8LARGPAz269GKUfWcvoQNrciHPx9J1j7_VjPsM58gqzIMrVSxrkUSUAwuoX5Yn1S8d3oQig5a64v5YnHGN1ToAQdMVYGTmmrBnd3zXsdNaYXSbgrXEp4VYrtdMRstcxDS4fQIQCU7XG__OSLYYH0MTfhAeEi2aliSXYk89BrcXMiTmFTuWhiUxc1kUee1udHY0MT72-LbZZT2vOFShPaxClrrgM2LBbEfPWDvm754gRO6g9Gm6uD_wuzbuUdRtvNhYJ-ycuIY8_Daud3gWZpySmMTKoR9jqbTpzs102Dg5mvCJAzo3iCG2AbnpV82KoULSi2eb6Dd1rqnXqo3OBp6t3Nbm5ioWnqhUoxStzMoNxWDNIpY_dNNRfRPM01I2rcADLQlS3SjuIZW9qQa_13SABuDDTs6aAssmS7YuRQ1_V0pX1RYsnKik5Pp7uLJ3KtnzjVMeVmHnFS-vWX4cN6gBzfdJOD8DnlNBiYBLq8C8Vs2YklkDkGhZryxyvkcVddNwFqonePOK4PPbZv29P2L1sYme0GTNKJWCufZYSB1Zq8cD5scfvncNIy-UDPd0D5WZ1SxLCaJndXB0f2ZUzhWFVf9WISGtV7tsmR0yqBnEP8CbZOz4xkooRRRiI3xIIDY2cPmZsIj5LgljO4mpkYlz83mOYaBMEUvjgcskUJwqpXJfRwf1nxyYrsu2BKR_D6XtVioEsMouNVXctvu73N7q_GLphzLDLZPEq-Getqyc2tVqeEaZjT-OIMoBYuBpO3XxMzjSH-2LijFBS7WHZE1TCyb_KdYgIsq5geel5bX97KD-JtdJaep2uiNGZQkq-nS0?></g></svg>